<svg width="27" height="27" viewBox="0 0 27 27" fill="none" xmlns="http://www.w3.org/2000/svg">
<path d="M3.97561 10.5625C3.97561 10.5625 3 11.4375 3 14.5C3 17.5625 3.97561 18.4375 3.97561 18.4375H7.39024L6.90244 10.5625H3.97561ZM15.6829 4C14.7073 8.375 8.85366 10.5625 8.85366 10.5625V18.4375C8.85366 18.4375 14.7073 20.625 15.6829 25H17.6341V4H15.6829ZM20.8005 19.4582L19.8337 18.2922C19.8488 18.2765 21.0488 16.5401 21.0488 14.5C21.0488 12.4599 19.8488 10.7235 19.8317 10.7064L20.8005 9.54225C20.8907 9.63237 23 11.7809 23 14.5C23 17.2191 20.8907 19.3676 20.8005 19.4582Z" fill="white"/>
</svg>
